<?xml version="1.0" encoding="UTF-8" standalone="no"?>
<!DOCTYPE svg PUBLIC "-//W3C//DTD SVG 1.1//EN" "http://www.w3.org/Graphics/SVG/1.1/DTD/svg11.dtd">
<svg width="100%" height="100%" viewBox="0 0 100 100" version="1.1" xmlns="http://www.w3.org/2000/svg" xmlns:xlink="http://www.w3.org/1999/xlink">
  <g transform="matrix(0.160359,0,0,0.160359,0,0)">
    <path d="M437.1,239.5C418.5,225.5 398.2,212.1 376.6,199.6C354.9,187.1 333.2,176.3 311.8,167.1C276.3,151.9 241.8,141.5 210.2,135.8C141.6,123.6 86.9,134.4 66.3,170C115.3,85.3 206.9,28.3 311.8,28.3C353,28.3 389.7,70.3 413.4,135.8C424.3,166 432.5,201.1 437.1,239.5Z" style="fill:rgb(97,187,70);fill-rule:nonzero;stroke-width:0.62px;stroke:rgb(97,187,70);"/>
  </g>
  <g transform="matrix(0.160359,0,0,0.160359,0,0)">
    <path d="M515,311.8C494.3,336.3 468,361 437.1,384.2C439.9,361.1 441.4,336.9 441.4,311.8C441.4,286.7 439.9,262.5 437.1,239.4C432.5,201.1 424.3,165.9 413.4,135.8C389.7,70.3 353,28.3 311.8,28.3C416.7,28.3 508.3,85.3 557.3,170C577.9,205.7 559.8,258.5 515,311.8Z" style="fill:rgb(253,184,39);fill-rule:nonzero;stroke-width:0.62px;stroke:rgb(253,184,39);"/>
  </g>
  <g transform="matrix(0.160359,0,0,0.160359,0,0)">
    <path d="M595.3,311.8C595.3,363.4 581.5,411.8 557.4,453.6C536.8,489.3 482.1,500 413.5,487.8C381.9,482.2 347.4,471.7 311.9,456.5C333.3,447.4 355,436.5 376.7,424C398.4,411.5 418.6,398.1 437.2,384.1C468.1,360.9 494.4,336.3 515.1,311.7C559.9,258.4 578,205.6 557.4,170C581.5,211.8 595.3,260.2 595.3,311.8Z" style="fill:rgb(245,130,31);fill-rule:nonzero;stroke-width:0.62px;stroke:rgb(245,130,31);"/>
  </g>
  <g transform="matrix(0.160359,0,0,0.160359,0,0)">
    <path d="M557.3,453.6C508.3,538.3 416.7,595.3 311.8,595.3C270.6,595.3 233.9,553.3 210.2,487.8C199.3,457.6 191.1,422.5 186.5,384.2C205.1,398.2 225.4,411.6 247,424.1C268.7,436.6 290.4,447.5 311.8,456.6C347.3,471.8 381.8,482.3 413.4,487.9C482,500 536.7,489.2 557.3,453.6Z" style="fill:rgb(224,58,62);fill-rule:nonzero;stroke-width:0.62px;stroke:rgb(224,58,62);"/>
  </g>
  <g transform="matrix(0.160359,0,0,0.160359,0,0)">
    <path d="M311.8,595.3C206.9,595.3 115.3,538.3 66.3,453.6C45.7,417.9 63.8,365.2 108.6,311.9C129.3,287.4 155.6,262.7 186.5,239.5C183.7,262.6 182.2,286.8 182.2,311.9C182.2,337 183.7,361.2 186.5,384.3C191.1,422.6 199.3,457.8 210.2,487.9C234,553.3 270.6,595.3 311.8,595.3Z" style="fill:rgb(150,61,151);fill-rule:nonzero;stroke-width:0.62px;stroke:rgb(150,61,151);"/>
  </g>
  <g transform="matrix(0.160359,0,0,0.160359,0,0)">
    <path d="M311.8,167.1C290.4,176.2 268.7,187.1 247,199.6C225.3,212.1 205.1,225.5 186.5,239.5C155.6,262.7 129.3,287.3 108.6,311.9C63.8,365.2 45.7,418 66.3,453.6C42.2,411.9 28.4,363.5 28.4,311.8C28.4,260.1 42.2,211.8 66.3,170C86.9,134.3 141.6,123.6 210.2,135.8C241.8,141.5 276.3,151.9 311.8,167.1Z" style="fill:rgb(0,157,220);fill-rule:nonzero;stroke-width:0.62px;stroke:rgb(0,157,220);"/>
  </g>
</svg>
